<svg t="1708271154405" class="icon" viewBox="0 0 1024 1024" version="1.1" xmlns="http://www.w3.org/2000/svg" p-id="3436" width="48" height="48"><path d="M179.2 870.4h665.6a25.6 25.6 0 1 1 0 51.2h-665.6a25.6 25.6 0 1 1 0-51.2z m198.6048-228.5568l203.1104-203.1616a25.6 25.6 0 0 1 36.1984 36.1984l-262.4512 262.4512a76.8 76.8 0 0 1-47.2576 22.1696l-131.8912 12.1856 12.1856-131.8912a76.8 76.8 0 0 1 22.1696-47.2576l457.5744-457.5744a76.8 76.8 0 0 1 108.544 0l36.2496 36.1984a76.8 76.8 0 0 1 0 108.5952L699.3408 392.704a25.6 25.6 0 0 1-36.1984-36.1984l40.448-40.4992-72.3968-72.448-325.8368 325.8368 72.448 72.448z m-36.1984 36.1984l-72.448-72.448-23.0912 23.1424a25.6 25.6 0 0 0-7.424 15.7696l-6.5024 70.5536 70.5536-6.5024a25.6 25.6 0 0 0 15.7696-7.424l23.1424-23.0912z m398.2336-398.2848l36.1984-36.1984a25.6 25.6 0 0 0 0-36.1984l-36.1984-36.1984a25.6 25.6 0 0 0-36.1984 0l-36.1984 36.1984 72.3968 72.3968z" fill="#cdcdcd" p-id="3437"></path></svg>