<svg t="1708003521660" class="icon" viewBox="0 0 1024 1024" version="1.1" xmlns="http://www.w3.org/2000/svg" p-id="16671" width="48" height="48"><path d="M512 54.784c-252.928 0-459.264 205.824-459.264 459.264S259.072 972.8 512 972.8s459.264-205.824 459.264-459.264-206.336-458.752-459.264-458.752z m0 805.376c-190.976 0-346.624-155.648-346.624-346.624S321.024 167.424 512 167.424s346.624 155.648 346.624 346.624S702.976 860.16 512 860.16z" fill="#2c2c2c" p-id="16672"></path><path d="M512 513.536m-153.6 0a153.6 153.6 0 1 0 307.2 0 153.6 153.6 0 1 0-307.2 0Z" fill="#2c2c2c" p-id="16673"></path></svg>